<?xml version="1.0"?>
<svg xmlns="http://www.w3.org/2000/svg" xmlns:xlink="http://www.w3.org/1999/xlink" xmlns:svgjs="http://svgjs.com/svgjs" version="1.1" width="512" height="512" x="0" y="0" viewBox="0 0 512 512" style="enable-background:new 0 0 512 512" xml:space="preserve" class=""><g><g xmlns="http://www.w3.org/2000/svg"><circle cx="354.57" cy="455.837" r="10" fill="#7406f9" data-original="#000000" style="" class=""/><path d="m480.8 370.018-15.553-77c-.634-3.14-2.734-5.785-5.647-7.116l-58.123-26.55c-.432-1.285-.871-2.567-1.328-3.844-3.9-10.91-8.74-21.45-14.37-31.31-3.175-5.556-6.627-10.922-10.307-16.067l48.068-53.446c.992-1.102 1.726-2.411 2.149-3.832l25.617-86c1.577-5.293-1.436-10.862-6.729-12.439-5.296-1.576-10.862 1.437-12.439 6.729l-24.974 83.842-44.387 49.353c-6.005-6.652-12.471-12.778-19.287-18.251-1.05-.84-2.11-1.67-3.18-2.47.45-3.1.69-6.31.69-9.62 0-4.75-.4-9.49-1.19-14.18 8.06-5.47 13.19-14.71 13.19-24.82 0-15.4-11.67-28.13-26.63-29.81-.11-.12-.21-.24-.31-.35-1.541-1.738-3.574-4.029-6.264-6.551l12.879-27.047c13.338-3.044 23.325-14.995 23.325-29.242 0-16.542-13.458-30-30-30s-30 13.458-30 30c0 11.429 6.426 21.383 15.854 26.447l-8.696 18.261c-3.39-1.704-7.197-3.298-11.478-4.678-6.35-12.007-19.3-19.027-35.68-19.027s-29.33 7.02-35.68 19.03c-4.281 1.38-8.088 2.974-11.478 4.678l-8.696-18.261c9.428-5.064 15.854-15.018 15.854-26.447 0-16.542-13.458-30-30-30s-30 13.458-30 30c0 14.247 9.986 26.198 23.325 29.242l12.879 27.047c-2.69 2.522-4.724 4.813-6.264 6.551-.1.11-.2.23-.31.35-14.96 1.68-26.63 14.41-26.63 29.81 0 10.11 5.13 19.34 13.19 24.82-.93 5.48-1.31 11.06-1.15 16.66.06 2.07.21 4.1.46 6.09-1.54 1.15-3.06 2.33-4.56 3.54-6.525 5.27-12.719 11.153-18.488 17.523l-44.475-48.612-23.146-83.687c-1.473-5.323-6.982-8.443-12.304-6.972-5.323 1.472-8.444 6.981-6.972 12.304l23.787 86c.421 1.52 1.195 2.92 2.26 4.084l48.155 52.634c-3.855 5.381-7.456 11.013-10.756 16.855-5.58 9.86-10.36 20.39-14.22 31.31-.509 1.438-1.001 2.882-1.479 4.332l-57.767 25.999c-2.976 1.339-5.111 4.046-5.72 7.251l-14.638 77c-1.031 5.426 2.531 10.66 7.956 11.692.631.12 1.259.178 1.879.178 4.707 0 8.901-3.34 9.813-8.134l13.665-71.885 38.309-17.242c-2.714 13.751-4.093 27.879-4.099 42.259.008 20.352 2.754 40.204 8.171 59.187l-32.078 35.063c-.971 1.062-1.702 2.32-2.142 3.689l-23.787 74c-1.69 5.258 1.202 10.891 6.459 12.581 1.018.327 2.049.483 3.063.483 4.227 0 8.155-2.702 9.517-6.942l23.119-71.921 23.289-25.455c3.128 7.631 6.699 15.027 10.689 22.076 5.53 9.79 11.89 19.01 18.91 27.4 7.01 8.4 14.76 16.05 23.04 22.73 8.37 6.76 17.33 12.57 26.64 17.28 9.51 4.8 19.46 8.5 29.59 10.98 10.42 2.56 21.14 3.85 31.87 3.85h.07c12.26 0 24.5-1.69 36.38-5.02 11.52-3.23 22.74-8.02 33.34-14.22 4.76-2.79 6.37-8.92 3.59-13.68-1.79-3.06-5.1-4.96-8.64-4.96-1.77 0-3.51.48-5.04 1.37-2.755 1.61-5.542 3.088-8.353 4.464l-40.397-153.252v-90.412c25.052-3.314 54.407-18.612 67.749-44.321 6.22 5.27 12.12 11.19 17.66 17.74 26.43 31.3 40.98 72.96 40.97 117.289 0 30.99-7.25 61.21-20.98 87.419-1.24 2.36-1.48 5.07-.69 7.62.8 2.55 2.54 4.64 4.91 5.87 1.43.75 3.03 1.15 4.63 1.15 3.74 0 7.13-2.06 8.87-5.36 2.841-5.427 5.434-11.014 7.777-16.733l26.052 26.441 24.877 71.863c1.432 4.136 5.306 6.731 9.449 6.731 1.085 0 2.188-.178 3.272-.553 5.219-1.807 7.985-7.502 6.178-12.721l-25.616-74c-.487-1.406-1.282-2.686-2.326-3.747l-34.592-35.108c.743-2.594 1.455-5.2 2.099-7.832 4.04-16.53 6.09-33.7 6.09-51.04 0-14.491-1.421-28.737-4.215-42.604l38.489 17.581 14.543 72.002c.959 4.745 5.13 8.022 9.791 8.022.656 0 1.323-.065 1.991-.2 5.413-1.093 8.915-6.368 7.822-11.781zm-154.801-350.018c5.514 0 10 4.486 10 10s-4.486 10-10 10-10-4.486-10-10 4.486-10 10-10zm-139.998 0c5.514 0 10 4.486 10 10s-4.486 10-10 10-10-4.486-10-10 4.485-10 10-10zm-26.75 424.327c-26.16-31.25-40.56-72.92-40.55-117.329-.01-44.41 14.39-86.08 40.55-117.329 5.77-6.88 11.95-13.07 18.48-18.52 13.103 26.172 43.048 41.766 68.269 45.133v90.42l-40.591 153.988c-17.043-8.078-32.726-20.339-46.158-36.363zm95.839 47.67c-10.51-.003-20.845-1.454-30.857-4.256l31.767-120.511 31.644 120.045c-10.576 3.125-21.453 4.717-32.554 4.722zm.91-275.018c-22.09 0-51.83-14.02-61.669-37.73-1.97-4.74-3.14-9.86-3.3-15.34-.06-1.94-.03-3.87.09-5.79.26-4.49.99-8.92 2.17-13.24 1.44-5.31-1.67-10.79-6.97-12.26-4.31-1.2-7.32-5.16-7.32-9.62 0-5.51 4.49-10 10-10h.85c1.75 0 3.48-.46 5-1.34 2.33-1.35 3.98-3.2 6.06-5.55.152-.172.318-.357.477-.537l15.584 32.726c1.714 3.599 5.298 5.703 9.036 5.703 1.441 0 2.905-.313 4.292-.974 4.986-2.374 7.103-8.342 4.729-13.328l-17.582-36.923c3.533-1.81 7.7-3.47 12.704-4.787 3.24-.85 5.84-3.27 6.92-6.44 3.129-9.179 13.199-10.549 18.929-10.549s15.8 1.37 18.93 10.55c1.08 3.17 3.68 5.59 6.92 6.44 5.004 1.317 9.171 2.977 12.704 4.787l-17.583 36.923c-2.374 4.986-.257 10.954 4.729 13.328 1.388.661 2.851.974 4.292.974 3.737 0 7.322-2.104 9.036-5.703l15.584-32.726c.16.18.325.365.477.537 2.08 2.35 3.73 4.2 6.06 5.55 1.52.88 3.25 1.34 5 1.34h.85c5.51 0 10 4.49 10 10 0 4.47-3.01 8.42-7.32 9.62-5.31 1.47-8.42 6.95-6.98 12.26 1.27 4.63 2.01 9.38 2.22 14.16.06.98.08 1.97.08 2.96 0 6.59-1.35 12.59-3.71 18-10.699 24.629-42.159 36.979-61.289 36.979z" fill="#7406f9" data-original="#000000" style="" class=""/></g></g></svg>
