<svg id="Layer_5" enable-background="new 0 0 64 64" height="512" viewBox="0 0 64 64" width="512" xmlns="http://www.w3.org/2000/svg"><g><g><g><path d="m24 44v6h-9c-.34 0-.67-.03-.99-.1-2.29-.46-4.01-2.48-4.01-4.9v-4.09c0-1.88.64-3.71 1.82-5.18 1.39-1.75 3.43-2.86 5.65-3.08l4.79-.48c.41 2.85 1.13 5.64 2.15 8.32.44 1.19.95 2.37 1.52 3.51z" fill="#fcd770"/></g><g><path d="m43.92 32v-10h6v11c0 2.76-2.24 5-5 5h-4v16h-6.92v-4c0-1.1-.9-2-2-2h-2.18c.12-.31.18-.65.18-1 0-.66-.21-1.27-.57-1.76.83-1.53 1.55-3.11 2.17-4.74 1.04-2.73 1.76-5.59 2.16-8.5z" fill="#fcd770"/></g><g><path d="m28 36 3.6 4.5c-.62 1.63-1.34 3.21-2.17 4.74-.1-.13-.2-.25-.31-.36-.54-.54-1.29-.88-2.12-.88h-1.07c-.57-1.14-1.08-2.32-1.52-3.51z" fill="#b4dd7f"/></g><g><path d="m32 32h1.76c-.4 2.91-1.12 5.77-2.16 8.5l-3.6-4.5z" fill="#a0d468"/></g><g><path d="m28 36-3.59 4.49c-1.02-2.68-1.74-5.47-2.15-8.32l1.74-.17z" fill="#a0d468"/></g><g><path d="m40.92 54v8h-8.92c1.1 0 2-.9 2-2v-6z" fill="#969faa"/></g><g><path d="m34 54v6c0 1.1-.9 2-2 2h-2-14c-1.1 0-2-.9-2-2v-10l5 6h3c0 1.1.9 2 2 2s2-.9 2-2h3l5-6z" fill="#cf9e76"/></g><g><path d="m19 56-5-6 .01-.1c.32.07.65.1.99.1h9 3c1.31 0 2.42-.83 2.82-2h2.18c1.1 0 2 .9 2 2l-5 6h-3v-2h-4v2z" fill="#d3a06c"/></g><g><path d="m26 54v2c0 1.1-.9 2-2 2s-2-.9-2-2v-2z" fill="#fcd770"/></g><g><path d="m29.18 14h-.01-1.08c-1.44 0-2.8-.63-3.74-1.68l-.59.3c-1.69.84-2.76 2.58-2.76 4.47v.91h-1c-.8 0-1.53.32-2.06.82l-.5-1.5c-.29-.87-.44-1.79-.44-2.72 0-4.75 3.85-8.6 8.6-8.6h4.8c2.38 0 4.52.96 6.08 2.52s2.52 3.7 2.52 6.08c0 .93-.15 1.85-.44 2.72l-.5 1.5c-.53-.51-1.26-.82-2.06-.82h-1v-5c0 1.66-1.34 3-3 3-1.31 0-2.42-.83-2.82-2z" fill="#656d78"/></g><g><path d="m54 2v16h-4.08-6-3.92v-3.4-12.6z" fill="#e6e9ed"/></g><g><path d="m43.92 18h6v4h-6z" fill="#f0d0b4"/></g><g><path d="m30 47c0 .35-.06.69-.18 1-.4 1.17-1.51 2-2.82 2h-3v-6h1.93 1.07c.83 0 1.58.34 2.12.88.11.11.21.23.31.36.36.49.57 1.1.57 1.76z" fill="#f0d0b4"/></g><g><path d="m36 24h-1.07l-.21-.05c.18-.62.28-1.27.28-1.95v-4h1c.8 0 1.53.31 2.06.82.58.55.94 1.32.94 2.18 0 .83-.34 1.58-.88 2.12s-1.29.88-2.12.88z" fill="#f0d0b4"/></g><g><path d="m32 32-4 4-4-4 1.4-3.5c.8.32 1.68.5 2.6.5.91 0 1.78-.17 2.58-.49l1.34 3.49z" fill="#f0d0b4"/></g><g><path d="m21 22c0 .68.1 1.33.28 1.95l-.21.05h-1.07c-.83 0-1.58-.34-2.12-.88s-.88-1.29-.88-2.12c0-.86.36-1.63.94-2.18.53-.5 1.26-.82 2.06-.82h1z" fill="#f0d0b4"/></g><g><path d="m21 22v-4-.91c0-1.89 1.07-3.63 2.76-4.47l.59-.3c.94 1.05 2.3 1.68 3.74 1.68h1.08.01c.4 1.17 1.51 2 2.82 2 1.66 0 3-1.34 3-3v5 4c0 .68-.1 1.33-.28 1.95-.6 2.09-2.14 3.77-4.14 4.56-.8.32-1.67.49-2.58.49-.92 0-1.8-.18-2.6-.5-.89-.35-1.68-.88-2.35-1.55-.83-.83-1.44-1.85-1.77-3-.18-.62-.28-1.27-.28-1.95z" fill="#f0d0b4"/></g></g><g><circle cx="25" cy="19" r="1"/><circle cx="31" cy="19" r="1"/><path d="m32 22h-2c0 1.103-.897 2-2 2s-2-.897-2-2h-2c0 2.206 1.794 4 4 4s4-1.794 4-4z"/><path d="m55 1h-16v9.363c-1.57-3.171-4.832-5.363-8.604-5.363h-4.793c-5.294 0-9.603 4.309-9.603 9.604 0 1.033.166 2.055.492 3.037l.322.967c-.504.668-.814 1.491-.814 2.392 0 2.206 1.794 4 4 4h.589c.691 1.7 1.947 3.11 3.537 3.994l-.829 2.071-5.922.592c-2.475.248-4.784 1.504-6.338 3.445-1.313 1.643-2.037 3.707-2.037 5.809v4.089c0 2.607 1.673 4.824 4 5.65v9.35c0 1.654 1.346 3 3 3h14 2 9.917v-24h3c3.309 0 6-2.691 6-6v-14h4.083zm-34 52v2h-1.531l-3.333-4h10.864c1.474 0 2.75-.81 3.444-2h1.556c.448 0 .814.301.941.708l-4.41 5.292h-1.531v-2zm4 2v1c0 .552-.448 1-1 1s-1-.448-1-1v-1zm-1.372-21.958 3.032 3.032-1.909 2.386c-.575-1.761-1.021-3.563-1.334-5.397zm3.372 11.958c1.103 0 2 .897 2 2s-.897 2-2 2h-2v-4zm2.128-1.374c-.617-.391-1.344-.626-2.128-.626h-.433c-.366-.767-.709-1.543-1.022-2.33l2.455-3.069 2.451 3.065c-.398 1.003-.838 1.99-1.323 2.96zm2.127-5.159-1.915-2.393 3.074-3.074h.178c-.314 1.86-.755 3.686-1.337 5.467zm1.349-7.467-.762-1.987c1.605-.883 2.873-2.302 3.568-4.013h.59c2.206 0 4-1.794 4-4 0-.732-.212-1.409-.556-2h3.473v12zm5.396-10c0 1.103-.897 2-2 2h-.069c.041-.328.069-.661.069-1v-3c1.103 0 2 .897 2 2zm-18 2c-1.103 0-2-.897-2-2s.897-2 2-2v3c0 .339.028.672.069 1zm.006-6h-.006c-.535 0-1.045.11-1.512.301l-.097-.292c-.26-.779-.391-1.587-.391-2.405 0-4.193 3.411-7.604 7.604-7.604h4.793c4.192 0 7.603 3.411 7.603 7.604 0 .818-.131 1.627-.391 2.404l-.098.293c-.466-.191-.976-.301-1.511-.301v-4c0-2.206-1.794-4-4-4v2c1.103 0 2 .897 2 2s-.897 2-2 2-2-.897-2-2v-2h-2v1.994c-1.488-.033-2.819-.868-3.487-2.205l-.618-1.236-1.789.895.618 1.236c.051.101.115.192.17.289-1.766 1.068-2.857 2.941-2.888 5.027zm1.994 5v-4.91c0-1.508.831-2.864 2.168-3.553 1.069.927 2.445 1.463 3.922 1.463h.466c.694 1.19 1.97 2 3.444 2 .732 0 1.409-.212 2-.556v5.556c0 3.309-2.691 6-6 6s-6-2.691-6-6zm6 8c.685 0 1.346-.096 1.98-.258l.794 2.07-2.774 2.774-2.827-2.827.811-2.027c.646.169 1.319.268 2.016.268zm-17 15v-4.089c0-1.65.568-3.271 1.6-4.56 1.219-1.524 3.032-2.51 4.975-2.704l3.85-.385c.561 3.363 1.539 6.629 2.932 9.737h-7.357v-6h-2v6.586l-1.707 1.707 1.414 1.414 1.707-1.706h6.586v4h-8c-2.206 0-4-1.794-4-4zm19 16h-14c-.552 0-1-.448-1-1v-7.237l3.531 4.237h2.653c.414 1.161 1.514 2 2.816 2s2.402-.839 2.816-2h2.653l3.531-4.237v7.237c0 .552-.448 1-1 1zm4.816 0c.112-.314.184-.648.184-1v-5h4.917v6zm10.101-24h-5v16h-4.917v-3c0-1.654-1.346-3-3-3h-1c0-.645-.168-1.246-.44-1.786 2.012-3.837 3.373-7.939 4.056-12.214h8.887l1.707 1.707 1.414-1.414-1.707-1.707v-8.586h4v10c0 2.206-1.794 4-4 4zm4-16h-4v-2h4zm4.083-4h-12v-14h12z"/><path d="m43 5h8v2h-8z"/><path d="m43 9h8v2h-8z"/><path d="m43 13h4v2h-4z"/><path d="m49 13h2v2h-2z"/></g></g></svg>